<svg version="1.1" xmlns="http://www.w3.org/2000/svg" xmlns:xlink="http://www.w3.org/1999/xlink" width="512" height="512" viewBox="0,0,256,256"><g fill="#ffffff" fill-rule="nonzero" stroke="none" stroke-width="1" stroke-linecap="butt" stroke-linejoin="miter" stroke-miterlimit="10" stroke-dasharray="" stroke-dashoffset="0" font-family="none" font-weight="none" font-size="none" text-anchor="none" style="mix-blend-mode: normal"><g transform="translate(-0.06173,-0.15123) scale(10.66667,10.66667)"><path d="M23.421,16.583l-3.291,-3.291c-0.24975,-0.26596 -0.62453,-0.37479 -0.97789,-0.28397c-0.35336,0.09082 -0.62921,0.36687 -0.71978,0.72029c-0.09057,0.35342 0.01853,0.72812 0.28467,0.97768l2.29,2.294c-2.51491,0.00571 -4.92567,-1.00388 -6.686,-2.8c-0.19549,-0.18003 -0.4556,-0.27314 -0.72094,-0.25807c-0.26533,0.01508 -0.51322,0.13705 -0.68706,0.33807l-0.013,0.02c-0.34932,0.40635 -0.31624,1.01584 0.075,1.382c2.12088,2.14492 5.01867,3.34155 8.035,3.318l-2.293,2.293c-0.28484,0.245 -0.40832,0.62899 -0.31967,0.99409c0.08865,0.36511 0.37447,0.64971 0.73995,0.73681c0.36548,0.0871 0.74894,-0.03802 0.99272,-0.3239l3.291,-3.291c0.77943,-0.78077 0.77943,-2.04523 0,-2.826z"></path><path d="M21.007,7l-2.29,2.29c-0.01949,0.02632 -0.03752,0.0537 -0.054,0.082c-0.33515,0.40863 -0.29109,1.00826 0.10017,1.36352c0.39127,0.35526 0.99235,0.3414 1.36683,-0.03152l1.706,-1.704l1.586,-1.585c0.54744,-0.55173 0.72566,-1.37067 0.457,-2.1c-0.09715,-0.27345 -0.25355,-0.52205 -0.458,-0.728l-3.291,-3.287c-0.24864,-0.27015 -0.62532,-0.38231 -0.98124,-0.2922c-0.35592,0.09012 -0.63383,0.36803 -0.72395,0.72395c-0.09012,0.35592 0.02205,0.7326 0.2922,0.98124l2.293,2.292c-4.933,0.012 -7.637,2.674 -10.089,5.474c-2.252,-2.542 -4.921,-5.079 -9.434,-5.433l-0.481,-0.046c-0.55228,0 -1,0.44772 -1,1c0.01064,0.54782 0.45218,0.98936 1,1c0.072,0 0.287,0.033 0.287,0.033c3.896,0.295 6.132,2.489 8.307,4.967c-2.162,2.466 -4.383,4.7 -8.247,4.96l-0.4,0.021c-0.54814,0.03424 -0.96474,0.50636 -0.9305,1.0545c0.03424,0.54814 0.50636,0.96474 1.0545,0.9305c0.156,-0.007 0.41,-0.013 0.535,-0.023c5.02,-0.387 7.743,-3.6 10.171,-6.409c2.452,-2.834 4.768,-5.516 9.224,-5.534z"></path></g></g></svg>